HIERARCHY
ROOT Hips
{
  OFFSET 13.6774 106.653 -34.4427
  CHANNELS 6 Xposition Yposition Zposition Zrotation Xrotation Yrotation
  JOINT ToSpine
  {
    OFFSET -2.69724 7.43032 -0.144315
    CHANNELS 3 Zrotation Xrotation Yrotation
    JOINT Spine
    {
      OFFSET -0.0310711 10.7595 1.96963
      CHANNELS 3 Zrotation Xrotation Yrotation
      JOINT Spine1
      {
        OFFSET 19.9056 3.91189 0.764692
        CHANNELS 3 Zrotation Xrotation Yrotation
        JOINT Neck
        {
          OFFSET 25.9749 7.03908 -0.130764
          CHANNELS 3 Zrotation Xrotation Yrotation
          JOINT Head
          {
            OFFSET 9.52751 0.295786 -0.907742
            CHANNELS 3 Zrotation Xrotation Yrotation
            End Site
            {
              OFFSET 16.4037 0.713936 2.7358
            }
          }
        }
        JOINT LeftShoulder
        {
          OFFSET 17.7449 4.33886 11.7777
          CHANNELS 3 Zrotation Xrotation Yrotation
          JOINT LeftArm
          {
            OFFSET 0.911315 1.27913 9.80584
            CHANNELS 3 Zrotation Xrotation Yrotation
            JOINT LeftForeArm
            {
              OFFSET 28.6126 1.18197 -3.53199
              CHANNELS 3 Zrotation Xrotation Yrotation
              JOINT LeftHand
              {
                OFFSET 27.5088 0.0218783 0.327423
                CHANNELS 3 Zrotation Xrotation Yrotation
                End Site
                {
                  OFFSET 18.6038 -0.000155887 0.382096
                }
              }
            }
          }
        }
        JOINT RightShoulder
        {
          OFFSET 17.1009 2.89543 -12.2328
          CHANNELS 3 Zrotation Xrotation Yrotation
          JOINT RightArm
          {
            OFFSET 1.4228 0.178766 -10.211
            CHANNELS 3 Zrotation Xrotation Yrotation
            JOINT RightForeArm
            {
              OFFSET 28.733 1.87905 2.64907
              CHANNELS 3 Zrotation Xrotation Yrotation
              JOINT RightHand
              {
                OFFSET 27.4588 0.290562 -0.101845
                CHANNELS 3 Zrotation Xrotation Yrotation
                End Site
                {
                  OFFSET 17.8396 -0.255518 -0.000602873
                }
              }
            }
          }
        }
      }
    }
  }
  JOINT LeftUpLeg
  {
    OFFSET -5.61296 -2.22332 -10.2353
    CHANNELS 3 Zrotation Xrotation Yrotation
    JOINT LeftLeg
    {
      OFFSET 2.56703 -44.7417 -7.93097
      CHANNELS 3 Zrotation Xrotation Yrotation
      JOINT LeftFoot
      {
        OFFSET 3.16933 -46.5642 -3.96578
        CHANNELS 3 Zrotation Xrotation Yrotation
        JOINT LeftToeBase
        {
          OFFSET 0.346054 -6.02161 12.8035
          CHANNELS 3 Zrotation Xrotation Yrotation
          End Site
          {
            OFFSET 0.134235 -1.35082 5.13018
          }
        }
      }
    }
  }
  JOINT RightUpLeg
  {
    OFFSET -5.7928 -1.72406 10.6446
    CHANNELS 3 Zrotation Xrotation Yrotation
    JOINT RightLeg
    {
      OFFSET -2.57161 -44.7178 -7.85259
      CHANNELS 3 Zrotation Xrotation Yrotation
      JOINT RightFoot
      {
        OFFSET -3.10148 -46.5936 -4.03391
        CHANNELS 3 Zrotation Xrotation Yrotation
        JOINT RightToeBase
        {
          OFFSET -0.0828122 -6.13587 12.8035
          CHANNELS 3 Zrotation Xrotation Yrotation
          End Site
          {
            OFFSET -0.131328 -1.35082 5.13018
          }
        }
      }
    }
  }
}
MOTION
Frames: 15
Frame Time: 0.03333333333333333
0.0000 93.1000 0.0000 6.9376 -48.7906 -69.4355 -71.2020 -0.0295 87.2059 116.3010 58.5301 -32.2691 -6.2432 11.6864 4.4279 -160.9932 0.1553 -177.4586 -148.7620 40.2003 -162.8613 -0.4335 -17.4322 -31.6763 -111.0654 17.0585 -55.1469 14.3454 -0.1164 -86.0971 -0.2187 0.3528 -0.6014 -2.4733 6.0369 42.9665 -69.4162 -37.2650 53.7211 4.7245 -2.7283 67.2331 0.3841 -1.8604 -0.6078 -60.0496 -2.5962 103.5690 -3.6909 51.9364 -3.6438 -8.0369 5.9134 1.2482 1.6875 -6.3340 3.8885 0.4856 8.6628 67.6933 5.5043 60.9066 6.7308 -5.9465 -5.6858 0.3436 0.0666 -29.1485 -28.8474 
0.0000 93.1000 0.0000 10.9171 -50.0565 -66.9449 -71.3842 0.2018 87.1663 122.3097 58.9304 -36.7010 -5.9363 13.4018 2.6640 -164.0397 2.3309 -176.7261 -148.5329 43.2097 -162.5877 -0.7340 -18.1517 -33.5606 -105.0979 22.9452 -56.1611 11.4842 2.0964 -78.1574 0.0633 0.4276 -0.5263 -2.5158 6.4897 43.0482 -70.3979 -35.9605 60.6331 7.4521 -3.0577 70.2495 -0.0674 -1.5273 -0.0209 -52.0234 1.2696 105.0527 -9.0843 71.6090 5.7892 -7.3940 4.0742 1.1057 0.8613 -4.1594 8.2334 -7.0927 7.8892 71.2411 5.8030 61.8460 2.4581 -6.7097 -12.3940 0.5467 0.8101 -17.1688 -22.8224 
0.0000 93.1000 0.0000 14.8325 -50.2929 -61.4746 -71.2628 -0.0187 86.9629 129.2531 58.5877 -40.1708 -4.9724 15.5498 0.4409 -164.9729 5.3267 -175.7796 -149.3919 46.0139 -161.8061 -1.0124 -18.9433 -36.5497 -95.8717 29.3297 -58.1025 9.5441 2.7915 -69.8862 -0.1673 0.0158 -0.5318 -2.6303 6.9443 41.9916 -73.2872 -35.5155 67.7473 10.0829 -3.1389 74.1571 0.5494 -1.5952 -0.2576 -37.8782 6.3821 101.8564 -129.9181 83.4510 129.3621 -2.7687 1.8561 -0.3870 1.5265 -7.2825 9.4039 -15.1993 7.0463 72.3596 4.4878 61.6765 -1.3402 -7.7358 -20.9593 0.7933 1.4300 -12.9919 -16.1859 
0.0000 93.1000 0.0000 14.8501 -50.1486 -60.4058 -71.0548 -0.0409 87.0269 136.3194 60.0591 -44.1236 -6.9596 18.7940 -1.4534 -168.0793 8.0900 -175.6062 -149.1677 48.9913 -164.6950 -1.7229 -18.6364 -37.9022 -86.9531 36.1329 -59.2556 8.7500 3.8450 -63.9580 0.0213 -0.2023 0.2421 -2.7873 7.2168 40.9528 -74.4504 -37.1548 73.6432 14.2615 -3.3141 79.3007 0.4928 -1.0032 0.0979 -20.7153 10.9725 96.4872 -165.0420 70.1336 162.8837 -0.3568 1.0808 -0.8161 2.3454 -7.7852 8.4859 -22.0316 6.3912 73.7372 4.4974 61.0606 0.6021 -6.6508 -25.4765 0.8569 2.6385 -16.3629 -20.2233 
0.0000 93.1000 0.0000 12.6649 -48.5504 -63.2068 -71.0005 -0.0143 87.0947 136.0365 62.7189 -45.9175 -8.6194 21.7593 -1.2961 -169.8197 10.6827 -177.0459 -151.2226 51.1086 -164.9758 -1.1997 -17.1945 -37.5320 -81.7507 45.2495 -55.3966 5.8599 2.0389 -65.0523 0.0137 -0.2464 0.0942 -2.8522 7.5836 37.8558 -74.1649 -39.9851 80.5372 16.2625 -1.3702 86.2466 0.3046 -1.2704 -0.0353 -2.2458 13.2872 93.6555 -167.2667 66.9056 163.4792 -1.0050 -0.1397 -0.4013 2.9757 -9.4331 10.1925 -28.4913 3.5208 77.4680 3.8978 57.6718 2.2767 -6.2587 -25.4934 1.0867 1.7284 -22.0493 -18.0358 
0.0000 93.1000 0.0000 12.7273 -48.2049 -65.3928 -70.9341 0.3065 86.8653 134.0154 66.1630 -47.8692 -10.7206 24.2994 0.4304 -167.8677 13.2819 -178.1194 -153.9336 53.6179 -164.5712 -0.7301 -16.0783 -35.2650 -78.7443 52.3231 -48.3685 4.4565 0.9638 -68.2010 0.0879 -0.1844 0.0677 -2.1982 7.7839 35.8856 -74.0707 -42.2855 84.5403 20.7790 0.9106 93.2590 0.2052 -0.9085 0.3342 7.8949 14.2943 93.6123 -161.2587 73.9031 156.4843 -1.9933 -1.0025 -0.1893 2.7510 -9.4292 9.6994 -38.1574 0.1071 81.7160 3.4504 49.7454 7.0024 -5.1174 -20.1054 0.9153 2.3040 -28.8138 -17.2318 
0.0000 93.1000 0.0000 14.7886 -48.1547 -64.3896 -71.0564 0.6011 87.2776 135.1207 68.8523 -50.4452 -12.0415 26.1704 0.6921 -165.8540 15.1397 -178.6607 -156.3568 55.7996 -165.9594 -0.4142 -15.3276 -33.4134 -76.9115 58.9061 -44.3447 3.2658 0.7083 -69.0311 0.6828 -0.1425 0.7783 -1.2512 6.7650 35.0268 -75.2388 -42.7401 85.2318 21.7150 3.7365 100.3817 -0.1963 0.1845 1.6435 10.6907 14.3458 93.7595 -84.1262 84.5744 75.7673 -3.1721 -1.8561 -0.0780 1.1489 -6.8089 10.2730 -51.8860 -2.4363 83.4089 1.4439 35.7371 12.4540 -3.0206 -3.4933 -0.1341 4.1669 -38.0724 -9.0297 
0.0000 93.1000 0.0000 16.5774 -48.3543 -63.6391 -71.0146 0.0676 87.3891 133.1679 71.9362 -48.7800 -10.6698 28.1432 0.9864 -165.8554 17.3911 -178.5020 -158.8958 57.4707 -162.8502 -0.4542 -15.0562 -32.3809 -81.9075 62.1416 -35.3296 3.3306 0.7000 -71.2784 -0.5070 0.1451 -0.4096 -2.4046 6.9945 34.0610 -76.2654 -42.5407 83.3594 22.1208 7.0393 105.1507 0.4884 -2.3068 -0.8203 9.9699 13.1408 95.9635 -12.8002 72.1173 -2.2918 -3.0182 -0.1189 -0.1990 5.4380 -13.4677 13.1579 -63.1860 -6.7377 77.5205 -1.2633 23.8372 22.5748 2.2404 15.0035 -1.6297 1.2031 -32.7766 -4.7148 
0.0000 93.1000 0.0000 18.8974 -46.3757 -58.7143 -71.0682 0.2776 87.1056 124.2325 74.2738 -37.0016 -8.0130 28.5010 -1.0196 -163.8171 18.9701 179.2610 -158.5816 59.2614 -162.4962 -0.5510 -15.3859 -31.1214 -88.5664 62.0207 -28.1442 2.7083 -0.3177 -73.0644 0.0532 -0.4482 0.3165 -1.9931 7.2718 35.0503 -77.2288 -42.1285 80.3209 23.9499 7.6696 107.2907 -0.3570 -1.1576 0.0739 8.8721 11.2684 97.5759 -7.2401 58.7777 -11.1887 -3.4596 3.2178 0.2172 8.5245 -19.6263 14.7938 -67.8954 -4.3522 81.1711 -3.7322 24.8309 28.5533 -0.3026 20.2016 -2.1236 2.9114 -23.6496 -29.8583 
0.0000 93.1000 0.0000 20.2530 -46.6090 -53.8630 -70.9634 0.1744 87.0522 119.2102 74.5728 -29.0177 -5.9011 28.0779 -2.6493 -160.8557 19.2233 176.0419 -158.3690 58.9613 -162.9031 -0.0995 -14.8983 -31.4134 -93.9608 60.1369 -25.2094 4.2970 1.1358 -75.1755 0.0389 -0.2708 0.1192 -1.7742 6.5617 36.1991 -76.1255 -41.0897 77.3950 23.7698 5.8013 101.2352 0.0950 -1.0005 0.2052 6.7845 11.3629 99.2155 -6.0801 55.0094 -10.3732 -4.3796 2.2306 0.0793 11.0135 -22.7492 16.2237 -66.9981 2.3355 93.1884 1.4986 38.9375 -9.3663 -4.0881 12.3507 -0.4456 -0.3510 -11.2346 1.5552 
0.0000 93.1000 0.0000 25.0748 -47.3251 -48.0226 -71.0553 0.2087 86.9244 118.1376 72.5801 -29.9447 -3.5669 25.9679 -1.9099 -155.8334 18.1790 174.6956 -156.6114 58.1387 -162.1624 0.3013 -14.1357 -32.5589 -94.7675 56.7479 -30.1801 6.1834 1.0740 -77.3079 -0.0967 0.2450 -0.1427 -1.9498 6.9808 38.6813 -77.4338 -40.7553 72.2990 21.0638 0.6956 91.5081 0.2316 -1.8311 -0.2956 0.8063 10.9567 100.8178 -7.1830 58.9131 -9.3296 -3.9309 -1.7576 -0.2843 10.5838 -21.3145 17.6378 -64.0701 6.5367 92.9260 3.1766 59.7038 -2.5897 -0.5022 13.6857 -1.4960 2.0490 -11.8903 -16.7204 
0.0000 93.1000 0.0000 34.0578 -46.2994 -41.0255 -70.9730 -0.2003 87.0825 118.1154 70.5277 -34.9792 -3.1064 23.6469 -0.4325 -150.8487 17.0850 172.4130 -153.6770 57.5229 -159.8718 -0.1860 -14.2646 -34.2140 -93.8848 52.2593 -38.1598 7.6407 0.6673 -80.0640 -0.1038 0.4146 -0.0956 -2.2932 6.6717 42.2416 -75.5002 -40.1956 69.3007 14.3179 -2.9862 79.4924 0.3206 -1.0969 0.1879 -9.5728 7.0974 102.5302 -9.4714 63.9926 -9.7577 -0.6829 -9.0740 -0.6762 6.9995 -14.8864 15.1141 -57.0962 5.8155 86.7759 23.9448 82.8245 -28.1493 -3.9706 11.8656 -1.0920 1.2659 -13.2257 -7.8789 
0.0000 93.1000 0.0000 36.9659 -44.4084 -39.0858 -71.3694 -0.3303 87.2090 113.0400 68.8170 -33.8749 -0.0137 22.2835 -1.0371 -149.9871 16.0555 170.2091 -150.2185 56.8878 -158.7483 0.3324 -14.9286 -35.2453 -92.7289 46.0553 -48.0619 13.0417 0.0051 -87.0229 -0.0474 -0.2139 0.4336 -2.6922 6.1169 44.9429 -72.0618 -40.3055 67.3866 8.9927 -4.1333 69.1752 0.2337 -0.6293 0.6186 -16.1111 2.9358 104.8982 -11.5108 67.9326 -8.6320 2.3578 -16.9166 -1.7421 4.7708 -12.9187 15.4527 -40.8742 4.0594 84.4141 166.7267 73.0119 177.6359 -11.1020 10.1005 0.9947 0.7152 -17.2138 0.9542 
0.0000 93.1000 0.0000 38.0583 -42.2359 -37.8013 -71.2718 0.2764 87.2741 111.0044 67.6066 -31.8148 0.8777 20.1768 -0.9240 -151.9495 15.1692 171.0718 -150.1924 56.1330 -159.5905 0.6399 -14.9015 -33.0966 -89.6843 45.3688 -58.9391 18.3154 -2.0569 -94.0666 -0.2576 0.4631 -0.3906 -2.8145 7.0536 45.1084 -66.5159 -42.6665 65.4805 7.7779 -4.9063 59.6135 0.9918 -2.1681 -0.2693 -22.3700 0.7688 104.8295 -11.4843 67.7525 -9.4352 3.4803 -22.1908 -2.6137 6.8458 -16.5662 18.2167 -21.3447 3.9957 82.8904 170.9507 59.9465 172.9320 -15.2331 9.6118 2.0664 1.6317 -21.7673 -3.4154 
0.0000 93.1000 0.0000 39.9955 -40.5537 -34.8809 -71.1568 -0.3658 86.9687 111.1178 65.3264 -31.9310 -0.5683 18.4264 0.0567 -152.9411 14.1183 170.2785 -148.6192 55.1618 -162.1921 -0.2505 -13.0404 -29.3790 -86.7856 45.2170 -68.0001 23.0396 -6.0872 -101.0221 -0.0277 -0.8513 0.4242 -3.4253 7.1027 45.8186 -60.1454 -47.3261 59.3182 5.0892 -4.1921 55.5985 -0.2084 -0.9283 0.3037 -32.2639 -1.9734 102.9018 -10.2347 64.9347 -12.9196 1.7055 -24.8551 -1.8505 8.2520 -18.5697 17.5771 -5.1671 3.0202 82.5307 170.6732 59.8930 172.5579 -15.5335 7.0624 2.0830 2.4066 -24.0034 -7.8006 
